# xmcd
#
# Track frame offsets:
#	150
#	16665
#	32047
#	46635
#	62457
#	77452
#	93247
#	109505
#	129300
#	144637
#	159842
#	176200
#	191772
#
# Disc length: 2772 seconds
# Revision: 3
# Processed by: cddbd v1.5.2PL0 Copyright (c) Steve Scherf et al.
# Submitted via: dBpowerAMP V12.0
#
DISCID=930ad20d
DTITLE=Carrie Underwood - Storyteller
DYEAR=2015
DGENRE=Country
TTITLE0=Renegade Runaway
TTITLE1=Dirty Laundry
TTITLE2=Church Bells
TTITLE3=Heartbeat
TTITLE4=Smoke Break
TTITLE5=Choctaw County Affair
TTITLE6=Like I'll Never Love You Again
TTITLE7=Chaser
TTITLE8=Relapse
TTITLE9=Clock Don't Stop
TTITLE10=The Girl You Think I Am
TTITLE11=Mexico
TTITLE12=What I Never Knew I Always Wanted
EXTD=
EXTT0=
EXTT1=
EXTT2=
EXTT3=
EXTT4=
EXTT5=
EXTT6=
EXTT7=
EXTT8=
EXTT9=
EXTT10=
EXTT11=
EXTT12=
PLAYORDER=
